<svg height="436pt" viewBox="0 -3 436.89643 436" width="436pt" xmlns="http://www.w3.org/2000/svg"><path d="m197.972656 430.328125c-109.164062 0-197.972656-88.8125-197.972656-197.972656 0-109.160157 88.808594-197.976563 197.972656-197.976563 3.769532 0 6.828125 3.054688 6.828125 6.828125v27.289063c0 3.773437-3.058593 6.824218-6.828125 6.824218-3.769531 0-6.824218-3.050781-6.824218-6.824218v-20.335938c-98.488282 3.601563-177.496094 84.84375-177.496094 184.195313 0 101.632812 82.6875 184.320312 184.320312 184.320312 99.351563 0 180.597656-79.007812 184.199219-177.492187h-20.355469c-3.769531 0-6.828125-3.054688-6.828125-6.828125 0-3.773438 3.058594-6.828125 6.828125-6.828125h27.304688c3.769531 0 6.824218 3.054687 6.824218 6.828125 0 109.160156-88.808593 197.972656-197.972656 197.972656zm0 0"/><path d="m197.972656 403.019531c-94.105468 0-170.664062-76.558593-170.664062-170.664062 0-94.109375 76.558594-170.667969 170.664062-170.667969 94.109375 0 170.667969 76.558594 170.667969 170.667969 0 94.105469-76.558594 170.664062-170.667969 170.664062zm0-327.679687c-86.578125 0-157.011718 70.433594-157.011718 157.015625 0 86.578125 70.433593 157.011719 157.011718 157.011719s157.015625-70.433594 157.015625-157.011719c0-86.582031-70.4375-157.015625-157.015625-157.015625zm0 0"/><path d="m155.917969 166.519531c0-1.292969.863281-2.152343 2.15625-2.152343h51.886719c29.5 0 44.140624 15.074218 44.140624 38.539062 0 17.015625-8.183593 27.347656-19.59375 31.867188v.433593c9.90625 2.800781 22.179688 14.207031 22.179688 33.800781 0 27.347657-17.226562 41.773438-47.800781 41.773438h-50.8125c-1.292969 0-2.15625-.859375-2.15625-2.152344zm53.613281 61.148438c16.148438 0 25.621094-9.253907 25.621094-22.820313 0-13.992187-9.472656-23.039062-25.621094-23.039062h-33.160156c-.859375 0-1.289063.433594-1.289063 1.292968v43.277344c0 .863282.429688 1.289063 1.289063 1.289063zm-33.15625 65.671875h34.234375c17.441406 0 26.914063-9.472656 26.914063-24.113282 0-14.425781-9.472657-24.117187-26.914063-24.117187h-34.234375c-.863281 0-1.292969.433594-1.292969 1.292969v45.644531c0 .859375.429688 1.292969 1.292969 1.292969zm0 0"/><path d="m184.320312 170.914062c-3.769531 0-6.828124-3.054687-6.828124-6.828124v-20.480469c0-3.773438 3.058593-6.824219 6.828124-6.824219 3.769532 0 6.828126 3.050781 6.828126 6.824219v20.480469c0 3.773437-3.058594 6.828124-6.828126 6.828124zm0 0"/><path d="m204.800781 170.914062c-3.769531 0-6.828125-3.054687-6.828125-6.828124v-20.480469c0-3.773438 3.058594-6.824219 6.828125-6.824219s6.824219 3.050781 6.824219 6.824219v20.480469c0 3.773437-3.054688 6.828124-6.824219 6.828124zm0 0"/><path d="m184.320312 334.753906c-3.769531 0-6.828124-3.054687-6.828124-6.828125v-20.480469c0-3.773437 3.058593-6.824218 6.828124-6.824218 3.769532 0 6.828126 3.050781 6.828126 6.824218v20.480469c0 3.773438-3.058594 6.828125-6.828126 6.828125zm0 0"/><path d="m204.800781 334.753906c-3.769531 0-6.828125-3.054687-6.828125-6.828125v-20.480469c0-3.773437 3.058594-6.824218 6.828125-6.824218s6.824219 3.050781 6.824219 6.824218v20.480469c0 3.773438-3.054688 6.828125-6.824219 6.828125zm0 0"/><path d="m375.464844 150.433594c-11.292969 0-20.476563-9.1875-20.476563-20.480469v-59.785156l-6.003906 6c-7.722656 7.734375-21.226563 7.734375-28.960937 0-7.984376-7.988281-7.984376-20.972657.003906-28.960938l40.957031-40.960937c7.726563-7.730469 21.230469-7.730469 28.964844 0l40.957031 40.960937c7.988281 7.988281 7.988281 20.972657 0 28.960938-7.726562 7.734375-21.230469 7.734375-28.964844 0l-5.996094-6v59.785156c0 11.296875-9.1875 20.480469-20.480468 20.480469zm-13.652344-103.570313c.882812 0 1.765625.164063 2.613281.519531 2.550781 1.050782 4.214844 3.546876 4.214844 6.304688v76.269531c0 3.765625 3.0625 6.824219 6.824219 6.824219 3.765625 0 6.828125-3.058594 6.828125-6.824219v-76.269531c0-2.757812 1.664062-5.253906 4.214843-6.304688 2.546876-1.082031 5.484376-.472656 7.4375 1.480469l17.65625 17.652344c2.578126 2.585937 7.074219 2.585937 9.648438 0 2.664062-2.660156 2.664062-6.992187.003906-9.652344l-40.960937-40.960937c-2.582031-2.585938-7.074219-2.585938-9.648438 0l-40.964843 40.960937c-2.660157 2.660157-2.660157 6.992188 0 9.652344 2.582031 2.585937 7.078124 2.585937 9.648437 0l17.660156-17.652344c1.304688-1.308593 3.046875-2 4.824219-2zm0 0"/></svg>